<svg width="38" height="38" viewBox="0 0 38 38" fill="none" xmlns="http://www.w3.org/2000/svg">
<g clip-path="url(#clip0)">
<path d="M0 10.1764C0.356808 8.4655 0.624413 6.66455 1.60563 5.13375C3.74648 1.53185 7.13615 0.181143 11.061 0.0910951C16.4131 0.00104772 21.6761 0.00104772 27.0282 0.0910951C30.5962 0.181143 33.8075 1.35176 36.0376 4.50342C37.4648 6.57451 38 8.82569 38 11.257C38.0892 16.3897 38.0892 21.5224 38 26.7451C37.9108 30.8873 36.4836 34.3992 32.6479 36.5603C30.8638 37.5508 28.9014 38.001 26.939 38.001C21.6761 38.0911 16.4131 38.0911 11.2394 38.001C7.31455 37.911 3.92488 36.5603 1.69484 32.9584C0.713615 31.4276 0.446009 29.6266 0.0892019 27.9157C0 21.9726 0 16.1195 0 10.1764ZM19 3.69299C16.4131 3.69299 13.8263 3.60294 11.1502 3.69299C7.13615 3.87309 4.6385 5.76408 3.92488 9.27593C3.74648 9.99631 3.65728 10.8067 3.65728 11.5271C3.65728 16.4797 3.56808 21.5224 3.65728 26.475C3.74648 31.4276 6.24413 34.039 10.9718 34.2191C16.3239 34.3992 21.6761 34.3992 27.0282 34.2191C30.9531 34.129 33.2723 32.148 34.0751 28.7262C34.2535 28.0958 34.3427 27.4655 34.3427 26.8352C34.3427 21.1622 34.6995 15.4892 34.1643 9.81621C33.8967 6.48446 31.6667 4.23327 28.3662 3.78304C25.2441 3.5129 22.1221 3.78304 19 3.69299Z" fill="#FFE1C5"/>
<path d="M28.8122 19.0911C28.8122 24.4039 24.4413 28.8162 19 28.9063C13.5587 28.9963 9.0986 24.494 9.0986 19.0011C9.0986 13.5982 13.6479 9.09585 19 9.1859C24.5305 9.27595 28.8122 13.6883 28.8122 19.0911ZM25.1549 19.0911C25.1549 15.6693 22.3897 12.8778 19 12.8778C15.6103 12.8778 12.7559 15.6693 12.7559 19.0911C12.7559 22.5129 15.5211 25.3044 18.9108 25.3044C22.3005 25.2143 25.1549 22.4229 25.1549 19.0911Z" fill="#FFE1C5"/>
<path d="M29.0798 6.57446C30.4178 6.57446 31.4883 7.65503 31.4883 8.91569C31.4883 10.1764 30.4178 11.2569 29.169 11.2569C27.831 11.2569 26.7606 10.2664 26.6714 8.91569C26.6714 7.65503 27.7418 6.57446 29.0798 6.57446Z" fill="#FFE1C5"/>
</g>
<defs>
<clipPath id="clip0">
<rect width="38" height="38" fill="white" transform="translate(0 0.00109863)"/>
</clipPath>
</defs>
</svg>
