<svg width="38" height="38" viewBox="0 0 38 38" fill="none" xmlns="http://www.w3.org/2000/svg">
<g clip-path="url(#clip0)">
<path d="M30.2514 36.9392H7.74861C4.03353 36.9392 1.06146 33.9672 1.06146 30.2521V7.74929C1.06146 4.0342 4.03353 1.06213 7.74861 1.06213H30.2514C33.9665 1.06213 36.9386 4.0342 36.9386 7.74929V30.2521C36.9386 33.9672 33.9665 36.9392 30.2514 36.9392Z" stroke="#FFE1C5" stroke-width="4" stroke-miterlimit="10" stroke-linecap="round" stroke-linejoin="round"/>
<g clip-path="url(#clip1)">
<path d="M14.1173 12.1012C14.1173 13.2158 13.4274 14.118 12.1006 14.118C10.8799 14.118 10.0838 13.2158 10.0838 12.2074C10.0838 11.0929 10.8799 10.0845 12.1006 10.0845C13.3212 10.0845 14.1173 10.9867 14.1173 12.1012Z" fill="#FFE1C5"/>
<path d="M14.1173 15.1263H10.0838V28.2353H14.1173V15.1263Z" fill="#FFE1C5"/>
<path d="M23.7765 15.3386C21.6536 15.3386 20.433 16.5593 19.9553 17.3554H19.8492L19.6369 15.604H16.0279C16.0279 16.7185 16.1341 18.0453 16.1341 19.5314V28.1822H20.1676V21.0705C20.1676 20.6459 20.1676 20.3805 20.2737 20.0621C20.5922 19.3721 21.0698 18.4699 22.1843 18.4699C23.6173 18.4699 24.2011 19.6906 24.2011 21.2828V28.2353H28.2346V20.8051C28.2346 17.0369 26.324 15.3386 23.7765 15.3386Z" fill="#FFE1C5"/>
</g>
</g>
<defs>
<clipPath id="clip0">
<rect width="38" height="38" fill="white" transform="translate(0 0.000732422)"/>
</clipPath>
<clipPath id="clip1">
<rect width="18.1508" height="18.1508" fill="white" transform="translate(10.0838 10.0845)"/>
</clipPath>
</defs>
</svg>
